<mxfile host="Electron" modified="2021-12-19T22:41:40.497Z" agent="5.0 (X11; Linux x86_64) AppleWebKit/537.36 (KHTML, like Gecko) draw.io/16.0.0 Chrome/91.0.4472.164 Electron/13.6.3 Safari/537.36" etag="YLwqBv-X9X5-Gpyvj1gh" compressed="false" version="16.0.0" type="device">
  <diagram name="Page-1" id="e7e014a7-5840-1c2e-5031-d8a46d1fe8dd">
    <mxGraphModel dx="2287" dy="1356" grid="1" gridSize="10" guides="1" tooltips="1" connect="1" arrows="1" fold="1" page="1" pageScale="1" pageWidth="1169" pageHeight="826" background="none" math="0" shadow="0">
      <root>
        <mxCell id="0" />
        <mxCell id="1" parent="0" />
        <mxCell id="u9NyP-2F6DMevBadzdJv-113" value="HTTP Get request&lt;br&gt;mic=0, cam=0" style="html=1;verticalAlign=bottom;endArrow=block;rounded=0;" edge="1" parent="1">
          <mxGeometry x="-0.1172" width="80" relative="1" as="geometry">
            <mxPoint x="622" y="630" as="sourcePoint" />
            <mxPoint x="969.4999999999995" y="630" as="targetPoint" />
            <mxPoint as="offset" />
          </mxGeometry>
        </mxCell>
        <mxCell id="u9NyP-2F6DMevBadzdJv-102" value="HTTP Get request&lt;br&gt;mic=1, cam=1" style="html=1;verticalAlign=bottom;endArrow=block;rounded=0;" edge="1" parent="1">
          <mxGeometry x="-0.1172" width="80" relative="1" as="geometry">
            <mxPoint x="622" y="540" as="sourcePoint" />
            <mxPoint x="969.4999999999995" y="540" as="targetPoint" />
            <mxPoint as="offset" />
          </mxGeometry>
        </mxCell>
        <mxCell id="3" value="Desktop" style="swimlane;whiteSpace=wrap" parent="1" vertex="1">
          <mxGeometry x="90" y="128" width="632" height="570" as="geometry" />
        </mxCell>
        <mxCell id="u9NyP-2F6DMevBadzdJv-96" value="Write entry to registry" style="html=1;verticalAlign=bottom;endArrow=block;rounded=0;" edge="1" parent="3">
          <mxGeometry width="80" relative="1" as="geometry">
            <mxPoint x="117.99999999999955" y="332" as="sourcePoint" />
            <mxPoint x="297.49999999999955" y="332" as="targetPoint" />
          </mxGeometry>
        </mxCell>
        <mxCell id="u9NyP-2F6DMevBadzdJv-41" value=":Winreg" style="shape=umlLifeline;perimeter=lifelinePerimeter;whiteSpace=wrap;html=1;container=1;collapsible=0;recursiveResize=0;outlineConnect=0;" vertex="1" parent="3">
          <mxGeometry x="250" y="42" width="100" height="488" as="geometry" />
        </mxCell>
        <mxCell id="u9NyP-2F6DMevBadzdJv-52" value="" style="html=1;points=[];perimeter=orthogonalPerimeter;" vertex="1" parent="u9NyP-2F6DMevBadzdJv-41">
          <mxGeometry x="45" y="100" width="10" height="20" as="geometry" />
        </mxCell>
        <mxCell id="u9NyP-2F6DMevBadzdJv-53" value="" style="html=1;points=[];perimeter=orthogonalPerimeter;" vertex="1" parent="u9NyP-2F6DMevBadzdJv-41">
          <mxGeometry x="45" y="140" width="10" height="40" as="geometry" />
        </mxCell>
        <mxCell id="u9NyP-2F6DMevBadzdJv-95" value="" style="html=1;points=[];perimeter=orthogonalPerimeter;" vertex="1" parent="u9NyP-2F6DMevBadzdJv-41">
          <mxGeometry x="45" y="290" width="10" height="20" as="geometry" />
        </mxCell>
        <mxCell id="u9NyP-2F6DMevBadzdJv-42" value=":onair_sign_publisher" style="shape=umlLifeline;perimeter=lifelinePerimeter;whiteSpace=wrap;html=1;container=1;collapsible=0;recursiveResize=0;outlineConnect=0;" vertex="1" parent="3">
          <mxGeometry x="460" y="42" width="150" height="488" as="geometry" />
        </mxCell>
        <mxCell id="u9NyP-2F6DMevBadzdJv-55" value="HTTP Get request&lt;br&gt;mic=1, cam=0" style="html=1;verticalAlign=bottom;endArrow=block;rounded=0;" edge="1" parent="u9NyP-2F6DMevBadzdJv-42" target="u9NyP-2F6DMevBadzdJv-43">
          <mxGeometry x="-0.1172" width="80" relative="1" as="geometry">
            <mxPoint x="72" y="190" as="sourcePoint" />
            <mxPoint x="152" y="190" as="targetPoint" />
            <mxPoint as="offset" />
          </mxGeometry>
        </mxCell>
        <mxCell id="u9NyP-2F6DMevBadzdJv-45" value="" style="html=1;points=[];perimeter=orthogonalPerimeter;" vertex="1" parent="u9NyP-2F6DMevBadzdJv-42">
          <mxGeometry x="70" y="130" width="10" height="70" as="geometry" />
        </mxCell>
        <mxCell id="u9NyP-2F6DMevBadzdJv-58" value="" style="html=1;points=[];perimeter=orthogonalPerimeter;" vertex="1" parent="u9NyP-2F6DMevBadzdJv-42">
          <mxGeometry x="-165" y="230" width="10" height="40" as="geometry" />
        </mxCell>
        <mxCell id="u9NyP-2F6DMevBadzdJv-59" value="" style="html=1;points=[];perimeter=orthogonalPerimeter;" vertex="1" parent="u9NyP-2F6DMevBadzdJv-42">
          <mxGeometry x="70" y="220" width="10" height="70" as="geometry" />
        </mxCell>
        <mxCell id="u9NyP-2F6DMevBadzdJv-60" value="Read registry entries" style="html=1;verticalAlign=bottom;endArrow=block;rounded=0;" edge="1" parent="u9NyP-2F6DMevBadzdJv-42" source="u9NyP-2F6DMevBadzdJv-59">
          <mxGeometry width="80" relative="1" as="geometry">
            <mxPoint x="-8" y="102" as="sourcePoint" />
            <mxPoint x="-160.08823529411757" y="230" as="targetPoint" />
            <Array as="points">
              <mxPoint x="-18" y="230" />
            </Array>
          </mxGeometry>
        </mxCell>
        <mxCell id="u9NyP-2F6DMevBadzdJv-61" value="Return list of all applications&lt;br&gt;with mic/cam access" style="html=1;verticalAlign=bottom;endArrow=open;dashed=1;endSize=8;rounded=0;" edge="1" parent="u9NyP-2F6DMevBadzdJv-42" source="u9NyP-2F6DMevBadzdJv-58">
          <mxGeometry relative="1" as="geometry">
            <mxPoint x="164" y="262" as="sourcePoint" />
            <mxPoint x="74.49999999999955" y="270" as="targetPoint" />
            <Array as="points">
              <mxPoint x="-38" y="270" />
            </Array>
          </mxGeometry>
        </mxCell>
        <mxCell id="u9NyP-2F6DMevBadzdJv-62" value="&lt;i&gt;No change&lt;br&gt;hence no request to the onair sign&lt;/i&gt;" style="text;html=1;strokeColor=none;fillColor=none;align=center;verticalAlign=middle;whiteSpace=wrap;rounded=0;" vertex="1" parent="u9NyP-2F6DMevBadzdJv-42">
          <mxGeometry x="85" y="236" width="60" height="30" as="geometry" />
        </mxCell>
        <mxCell id="u9NyP-2F6DMevBadzdJv-98" value="" style="html=1;points=[];perimeter=orthogonalPerimeter;" vertex="1" parent="u9NyP-2F6DMevBadzdJv-42">
          <mxGeometry x="-165" y="320" width="10" height="40" as="geometry" />
        </mxCell>
        <mxCell id="u9NyP-2F6DMevBadzdJv-99" value="" style="html=1;points=[];perimeter=orthogonalPerimeter;" vertex="1" parent="u9NyP-2F6DMevBadzdJv-42">
          <mxGeometry x="70" y="310" width="10" height="70" as="geometry" />
        </mxCell>
        <mxCell id="u9NyP-2F6DMevBadzdJv-100" value="Read registry entries" style="html=1;verticalAlign=bottom;endArrow=block;rounded=0;" edge="1" parent="u9NyP-2F6DMevBadzdJv-42" source="u9NyP-2F6DMevBadzdJv-99">
          <mxGeometry width="80" relative="1" as="geometry">
            <mxPoint x="-466" y="22" as="sourcePoint" />
            <mxPoint x="-160.08823529411757" y="320" as="targetPoint" />
            <Array as="points">
              <mxPoint x="-18" y="320" />
            </Array>
          </mxGeometry>
        </mxCell>
        <mxCell id="u9NyP-2F6DMevBadzdJv-101" value="Return list of all applications&lt;br&gt;with mic/cam access" style="html=1;verticalAlign=bottom;endArrow=open;dashed=1;endSize=8;rounded=0;" edge="1" parent="u9NyP-2F6DMevBadzdJv-42" source="u9NyP-2F6DMevBadzdJv-98">
          <mxGeometry relative="1" as="geometry">
            <mxPoint x="-294" y="182" as="sourcePoint" />
            <mxPoint x="74.49999999999955" y="360" as="targetPoint" />
            <Array as="points">
              <mxPoint x="-38" y="360" />
            </Array>
          </mxGeometry>
        </mxCell>
        <mxCell id="u9NyP-2F6DMevBadzdJv-109" value="" style="html=1;points=[];perimeter=orthogonalPerimeter;" vertex="1" parent="u9NyP-2F6DMevBadzdJv-42">
          <mxGeometry x="-165" y="410" width="10" height="40" as="geometry" />
        </mxCell>
        <mxCell id="u9NyP-2F6DMevBadzdJv-110" value="" style="html=1;points=[];perimeter=orthogonalPerimeter;" vertex="1" parent="u9NyP-2F6DMevBadzdJv-42">
          <mxGeometry x="70" y="400" width="10" height="70" as="geometry" />
        </mxCell>
        <mxCell id="u9NyP-2F6DMevBadzdJv-111" value="Read registry entries" style="html=1;verticalAlign=bottom;endArrow=block;rounded=0;" edge="1" parent="u9NyP-2F6DMevBadzdJv-42" source="u9NyP-2F6DMevBadzdJv-110">
          <mxGeometry width="80" relative="1" as="geometry">
            <mxPoint x="-924" y="-58" as="sourcePoint" />
            <mxPoint x="-160.08823529411757" y="410" as="targetPoint" />
            <Array as="points">
              <mxPoint x="-18" y="410" />
            </Array>
          </mxGeometry>
        </mxCell>
        <mxCell id="u9NyP-2F6DMevBadzdJv-112" value="Return list of all applications&lt;br&gt;with mic/cam access" style="html=1;verticalAlign=bottom;endArrow=open;dashed=1;endSize=8;rounded=0;" edge="1" parent="u9NyP-2F6DMevBadzdJv-42" source="u9NyP-2F6DMevBadzdJv-109">
          <mxGeometry relative="1" as="geometry">
            <mxPoint x="-752" y="102" as="sourcePoint" />
            <mxPoint x="74.49999999999955" y="450" as="targetPoint" />
            <Array as="points">
              <mxPoint x="-38" y="450" />
            </Array>
          </mxGeometry>
        </mxCell>
        <mxCell id="u9NyP-2F6DMevBadzdJv-46" value="Read registry entries" style="html=1;verticalAlign=bottom;endArrow=block;rounded=0;" edge="1" parent="3" source="u9NyP-2F6DMevBadzdJv-45" target="u9NyP-2F6DMevBadzdJv-41">
          <mxGeometry width="80" relative="1" as="geometry">
            <mxPoint x="450" y="182" as="sourcePoint" />
            <mxPoint x="530" y="182" as="targetPoint" />
            <Array as="points">
              <mxPoint x="442" y="182" />
            </Array>
          </mxGeometry>
        </mxCell>
        <mxCell id="u9NyP-2F6DMevBadzdJv-47" value=":Conference tool" style="shape=umlLifeline;perimeter=lifelinePerimeter;whiteSpace=wrap;html=1;container=1;collapsible=0;recursiveResize=0;outlineConnect=0;" vertex="1" parent="3">
          <mxGeometry x="62" y="42" width="120" height="488" as="geometry" />
        </mxCell>
        <mxCell id="u9NyP-2F6DMevBadzdJv-48" value="" style="html=1;points=[];perimeter=orthogonalPerimeter;" vertex="1" parent="u9NyP-2F6DMevBadzdJv-47">
          <mxGeometry x="55" y="70" width="10" height="40" as="geometry" />
        </mxCell>
        <mxCell id="u9NyP-2F6DMevBadzdJv-94" value="" style="html=1;points=[];perimeter=orthogonalPerimeter;" vertex="1" parent="u9NyP-2F6DMevBadzdJv-47">
          <mxGeometry x="55" y="260" width="10" height="40" as="geometry" />
        </mxCell>
        <mxCell id="u9NyP-2F6DMevBadzdJv-97" value="Mic: on&lt;br&gt;Cam: on" style="text;html=1;strokeColor=none;fillColor=none;align=center;verticalAlign=middle;whiteSpace=wrap;rounded=0;" vertex="1" parent="u9NyP-2F6DMevBadzdJv-47">
          <mxGeometry x="-12" y="266" width="60" height="30" as="geometry" />
        </mxCell>
        <mxCell id="u9NyP-2F6DMevBadzdJv-105" value="Write entry to registry" style="html=1;verticalAlign=bottom;endArrow=block;rounded=0;entryX=0.538;entryY=-0.031;entryDx=0;entryDy=0;entryPerimeter=0;" edge="1" parent="u9NyP-2F6DMevBadzdJv-47" source="u9NyP-2F6DMevBadzdJv-107" target="u9NyP-2F6DMevBadzdJv-106">
          <mxGeometry width="80" relative="1" as="geometry">
            <mxPoint x="47.999999999999545" y="379" as="sourcePoint" />
            <mxPoint x="227.49999999999955" y="379" as="targetPoint" />
          </mxGeometry>
        </mxCell>
        <mxCell id="u9NyP-2F6DMevBadzdJv-106" value="" style="html=1;points=[];perimeter=orthogonalPerimeter;" vertex="1" parent="u9NyP-2F6DMevBadzdJv-47">
          <mxGeometry x="232" y="379" width="10" height="20" as="geometry" />
        </mxCell>
        <mxCell id="u9NyP-2F6DMevBadzdJv-107" value="" style="html=1;points=[];perimeter=orthogonalPerimeter;" vertex="1" parent="u9NyP-2F6DMevBadzdJv-47">
          <mxGeometry x="55" y="349" width="10" height="40" as="geometry" />
        </mxCell>
        <mxCell id="u9NyP-2F6DMevBadzdJv-108" value="Mic: off&lt;br&gt;Cam: off" style="text;html=1;strokeColor=none;fillColor=none;align=center;verticalAlign=middle;whiteSpace=wrap;rounded=0;" vertex="1" parent="u9NyP-2F6DMevBadzdJv-47">
          <mxGeometry x="-9" y="352" width="60" height="30" as="geometry" />
        </mxCell>
        <mxCell id="u9NyP-2F6DMevBadzdJv-50" value="Mic: on&lt;br&gt;Cam: off" style="text;html=1;strokeColor=none;fillColor=none;align=center;verticalAlign=middle;whiteSpace=wrap;rounded=0;" vertex="1" parent="3">
          <mxGeometry x="52" y="117" width="60" height="30" as="geometry" />
        </mxCell>
        <mxCell id="u9NyP-2F6DMevBadzdJv-54" value="Return list of all applications&lt;br&gt;with mic/cam access" style="html=1;verticalAlign=bottom;endArrow=open;dashed=1;endSize=8;rounded=0;" edge="1" parent="3" source="u9NyP-2F6DMevBadzdJv-53" target="u9NyP-2F6DMevBadzdJv-42">
          <mxGeometry relative="1" as="geometry">
            <mxPoint x="622" y="342" as="sourcePoint" />
            <mxPoint x="542" y="342" as="targetPoint" />
            <Array as="points">
              <mxPoint x="422" y="222" />
            </Array>
          </mxGeometry>
        </mxCell>
        <mxCell id="u9NyP-2F6DMevBadzdJv-51" value="Write entry to registry" style="html=1;verticalAlign=bottom;endArrow=block;rounded=0;" edge="1" parent="3">
          <mxGeometry width="80" relative="1" as="geometry">
            <mxPoint x="127" y="143" as="sourcePoint" />
            <mxPoint x="299.5" y="143" as="targetPoint" />
          </mxGeometry>
        </mxCell>
        <mxCell id="4" value="Onair sign" style="swimlane;whiteSpace=wrap" parent="1" vertex="1">
          <mxGeometry x="842" y="128" width="254.5" height="570" as="geometry" />
        </mxCell>
        <mxCell id="u9NyP-2F6DMevBadzdJv-43" value=":onair_sign_firmware" style="shape=umlLifeline;perimeter=lifelinePerimeter;whiteSpace=wrap;html=1;container=1;collapsible=0;recursiveResize=0;outlineConnect=0;" vertex="1" parent="4">
          <mxGeometry x="48" y="42" width="163" height="488" as="geometry" />
        </mxCell>
        <mxCell id="u9NyP-2F6DMevBadzdJv-56" value="" style="html=1;points=[];perimeter=orthogonalPerimeter;" vertex="1" parent="u9NyP-2F6DMevBadzdJv-43">
          <mxGeometry x="76" y="190" width="10" height="40" as="geometry" />
        </mxCell>
        <mxCell id="u9NyP-2F6DMevBadzdJv-57" value="mic led: on&lt;br&gt;cam led: off" style="text;html=1;strokeColor=none;fillColor=none;align=center;verticalAlign=middle;whiteSpace=wrap;rounded=0;" vertex="1" parent="u9NyP-2F6DMevBadzdJv-43">
          <mxGeometry x="82" y="195" width="78" height="30" as="geometry" />
        </mxCell>
        <mxCell id="u9NyP-2F6DMevBadzdJv-104" value="" style="html=1;points=[];perimeter=orthogonalPerimeter;" vertex="1" parent="u9NyP-2F6DMevBadzdJv-43">
          <mxGeometry x="76" y="370" width="10" height="40" as="geometry" />
        </mxCell>
        <mxCell id="u9NyP-2F6DMevBadzdJv-103" value="mic led: on&lt;br&gt;cam led: on" style="text;html=1;strokeColor=none;fillColor=none;align=center;verticalAlign=middle;whiteSpace=wrap;rounded=0;" vertex="1" parent="u9NyP-2F6DMevBadzdJv-43">
          <mxGeometry x="81" y="375" width="78" height="30" as="geometry" />
        </mxCell>
        <mxCell id="u9NyP-2F6DMevBadzdJv-114" value="" style="html=1;points=[];perimeter=orthogonalPerimeter;" vertex="1" parent="4">
          <mxGeometry x="124.5" y="502" width="10" height="40" as="geometry" />
        </mxCell>
        <mxCell id="u9NyP-2F6DMevBadzdJv-115" value="mic led: off&lt;br&gt;cam led: off" style="text;html=1;strokeColor=none;fillColor=none;align=center;verticalAlign=middle;whiteSpace=wrap;rounded=0;" vertex="1" parent="4">
          <mxGeometry x="133" y="507" width="78" height="30" as="geometry" />
        </mxCell>
      </root>
    </mxGraphModel>
  </diagram>
</mxfile>
